<?xml version="1.0" encoding="UTF-8"?>
<svg id="Layer_2" data-name="Layer 2" xmlns="http://www.w3.org/2000/svg" xmlns:xlink="http://www.w3.org/1999/xlink" viewBox="0 0 6496.82 2248.72">
  <defs>
    <style>
      .cls-1 {
        fill: #129bc2;
      }

      .cls-2 {
        fill: url(#linear-gradient-2);
      }

      .cls-3 {
        fill: url(#linear-gradient);
      }

      .cls-4, .cls-5, .cls-6 {
        isolation: isolate;
      }

      .cls-4, .cls-6 {
        font-family: Arial-BoldMT, Arial;
        font-size: 153.32px;
        font-weight: 700;
      }

      .cls-4, .cls-6, .cls-7 {
        fill: #223368;
      }

      .cls-6, .cls-8 {
        letter-spacing: .2em;
      }

      .cls-9 {
        fill: #119dc3;
      }

      .cls-10 {
        letter-spacing: .2em;
      }

      .cls-11 {
        fill: #223267;
      }

      .cls-12 {
        fill: #0f9bc3;
      }

      .cls-13 {
        letter-spacing: .13em;
      }
    </style>
    <linearGradient id="linear-gradient" x1="0" y1="1980.42" x2="2661.9" y2="1980.42" gradientTransform="translate(0 3124.96) scale(1 -1)" gradientUnits="userSpaceOnUse">
      <stop offset="0" stop-color="#0da7ca"/>
      <stop offset="1" stop-color="#22346a"/>
    </linearGradient>
    <linearGradient id="linear-gradient-2" x1="382.44" y1="1618.22" x2="2475.72" y2="2439.78" gradientTransform="translate(0 3124.96) scale(1 -1)" gradientUnits="userSpaceOnUse">
      <stop offset="0" stop-color="#22346a"/>
      <stop offset="1" stop-color="#0da7ca"/>
    </linearGradient>
  </defs>
  <g class="cls-5">
    <text class="cls-4" transform="translate(5242.93 1749.03)"><tspan class="cls-8" x="0" y="0">HEA</tspan><tspan class="cls-13" x="415.7" y="0">L</tspan><tspan class="cls-10" x="528.64" y="0">TH</tspan></text>
  </g>
  <g class="cls-5">
    <text class="cls-6" transform="translate(3206.89 1749.03)"><tspan x="0" y="0">CARE</tspan></text>
  </g>
  <polygon class="cls-7" points="3261.97 1409.54 3261.11 918.2 3035.76 1289.1 3003.67 1289.9 2784.11 917.05 2782.99 1409.36 2661.9 1409.74 2661.99 698.62 2802.29 698.84 3019.61 1079.89 3245.73 705.69 3380.4 705.08 3380.45 1409.31 3261.97 1409.54"/>
  <path class="cls-7" d="M4319.76,1407.91c-118.9,39.69-247.77-17.37-298.54-130.6-38.5-85.88-31.64-184.94,17.27-263.58,39.76-61.1,97.81-100.58,169.22-110.64,72.31-10.19,136.89,11,194.31,62.63l.73-268.36,112.67-.19.14,712.11-112.84.41-1.12-57.94c-26.86,24.31-47.49,44.71-81.84,56.18v-.02ZM4388.53,1236.58c24.03-54.19,20.46-116.96-8.52-166.03-26.65-45.13-72.67-70.91-122.4-70.96-49.16-.05-96.23,26-121.78,71.03-31.38,55.31-32.39,124.29-.29,179.14,28.12,48.06,78.67,75.24,131.97,71.2s98.18-32.85,121.03-84.37h0Z"/>
  <path class="cls-7" d="M3639.41,1301.18c69.29,41.99,154.98,22.75,204.93-38.52l84.53,59.82c-70.17,85.65-186.46,117.27-291.54,86.51-123.24-36.08-194.7-150.33-182.1-276.26,11.81-118,94.5-211.73,213.25-229.49,110.18-16.48,215.26,41.3,257.6,144.85,18.8,45.98,23.53,94.13,19.64,143.44l-373.29.08c3.44,47.69,26.98,85.34,66.99,109.59v-.02ZM3837.41,1110.63c-9.19-53.94-42.26-89.98-87.05-106.67-80.52-24.01-160.95,23.34-176.28,107.53l263.33-.86h0Z"/>
  <path class="cls-9" d="M6252.71,1146.13l234.01,260.09-127.88,3.92-197.17-217.07-28.75,29.23v185.93l-105.45.69.08-702.92,105.55-.92.89,414.93,203.19-208.1,105.75-.07c7.25,3.09,14.88,13.28,14.76,21.8l-155.44,160.5-49.54,51.98h0Z"/>
  <path class="cls-9" d="M5740.38,1003.68c-68.16-5.4-126.68,43.53-126.79,111.21l-.47,293.96-108.49,1.2-.08-497.68,108-.58,1.31,63.86c68.15-91.26,201.06-101.64,279.51-20.04,35.04,36.45,52.71,87.14,52.88,138.61l1.09,315.6-110.88.09-.82-309.48c-.14-53.32-41.5-92.5-95.25-96.75h-.01Z"/>
  <polygon class="cls-9" points="5255.9 1296.73 5257.47 1409.77 4847.44 1410.04 4847.4 709.37 4967.37 708.98 4967.3 1296.92 5255.9 1296.73"/>
  <polygon class="cls-7" points="4732.71 1409.11 4619.19 1409.5 4619.14 912.27 4732.72 912.02 4732.71 1409.11"/>
  <polygon class="cls-9" points="5428.22 1408.2 5316.6 1409.96 5316.44 912.39 5428.36 912.12 5428.22 1408.2"/>
  <path class="cls-7" d="M4663.6,705.54c37.97-7.52,71.2,18.63,77.86,51.63,7.35,36.41-16.38,71.72-53.11,78.94-33.5,6.58-68.56-15.73-76.58-51.23-7.48-33.12,12.59-71.56,51.83-79.34h0Z"/>
  <path class="cls-9" d="M5433.65,746.54c15.36,34.84-3.21,69.11-33.48,84.15-32,15.91-68.6,1.16-85.49-30.06-15.93-29.45-6.62-67.25,24.23-86.39,34.63-21.49,77.4-7.04,94.74,32.3Z"/>
  <path class="cls-1" d="M3064.26,1704.05l-398.53.09c-4.27-.59-1.26-21.95,2.42-21.04l204.8-.46,192.39.91-1.08,20.49h0Z"/>
  <path class="cls-1" d="M6495.65,1704.03l-346.3.16c-3.42-5.37-3.34-15.47.2-20.94l344.89-.34c2.63,5.38,3.14,12.78,1.22,21.12h-.01Z"/>
  <path class="cls-1" d="M5104.39,1674.01c12.49-7.14,26.92-1.09,32.75,12.1,4.03,9.11-.17,23.79-9.8,30.37-10.5,7.18-25.05,3.13-32.9-7.92-6.92-9.75-3.14-27.07,9.95-34.54h0Z"/>
  <path class="cls-1" d="M3875.86,1673.98c12.59-6.34,27.01.8,31.63,11.01,5.57,12.32,1.68,26.72-10.53,33.05-9.98,5.18-24.35.55-30.81-8.48-7.55-10.57-6.38-27.47,9.71-35.57h0Z"/>
  <path class="cls-3" d="M2301.16,1873.2c-140.79,68.24-309.15,44.09-439.03-34.71-57.95-35.16-108.89-74.9-158.93-120.9-150.74-138.56-276.35-304.62-423.87-451.11-140.9-139.9-316.12-270.38-504.61-335.06-195.52-67.09-395.64-75.9-581.5,18.88,4.51,41.52-15.66,77.52-47.82,95.99-34.35,19.73-75.97,16.14-108.62-8.51-45.9-34.66-48.64-101.97-9.31-141.9,40.42-41.04,106.75-38.91,146.2,9.13,232.7-131.26,511.81-103.32,748.97,7.25,217.93,101.6,397.36,259,560.05,434.48l140.52,151.56,122.45,126.49c121.6-83.41,239.69-168.9,353.28-265.24-128.36-202.2-228.56-435.32-238.64-672.52-5.2-135.94,37.63-258.81,181.72-272.21,15.68-29.31,46.09-42.9,77.33-37.87,29.69,4.78,55.41,29.36,56.94,63.06,1.49,32.76-24.46,59.73-52.43,65.45-34.73,7.1-65.64-10.6-81.27-41.8-54.05,6.83-98.52,43.81-113.91,97.1-31.71,109.79.22,261.07,34.38,374.11,41.23,136.47,103.66,261.56,183.95,382.58,153.9-137.71,278.06-273.59,343.26-471.66,38.69-117.52,57.28-236.05-57.45-301.55-35.17,31.3-82.65,24.58-108.68-11.17-12.22-16.78-15.18-37.41-7.88-58.46,5.05-14.56,20.07-32.6,38.67-38.86,43.89-14.75,85.85,14.05,95.76,58.38,75.39,36.91,122.31,109.86,125.08,194.08,1.35,40.9-5.58,80.71-15.52,121.49-34.75,142.6-101.06,271.58-190.94,387.1-61.35,78.85-128.95,146.1-203.54,212.66-111.63,99.61-226.53,189.89-352.72,278.69,126.33,117.01,310.36,183.54,474.04,110.38,102.44-45.79,183.52-124.53,227.58-227.93-25.13-20.03-38.6-47.23-37.23-77.34,1.39-30.5,16.29-58.92,44.1-76.52,33.54-21.23,77.19-17.71,107.07,8.41,28.44,24.86,42.12,64.09,27.15,103.32-13.03,34.16-46.99,60.82-90.67,60.53-52.42,123.83-140.93,224.64-263.92,284.25v-.05Z"/>
  <path class="cls-2" d="M2287.49,793.17h-330.65c-6.33-34.24-10.38-66.31-12.13-96h342.78c82.56,0,153.2,51.94,180.99,124.86-1.6,5.12-3.22,10.12-4.81,14.96-20.37,61.87-46.75,117.67-78.56,169.7v-115.91c0-53.82-43.79-97.61-97.61-97.61h-.01ZM2391.4,1213.95c-2.09,2.68-4.19,5.35-6.3,8.02v135.98c0,53.83-43.79,97.61-97.61,97.61h-131.7c-37.26,32.56-75.35,64.49-114.49,96h246.19c106.76,0,193.61-86.85,193.61-193.61v-277.35c-26.18,45.66-56.1,90.16-89.7,133.35ZM1687.94,1524.89l61.36,63.38c11.22-7.74,22.78-15.76,34.64-24.04v-12.66h18.05c41.39-29.14,85.95-61.3,131.82-96h-245.87v69.32h0ZM425.98,793.17h15.2c25.43-2.46,51.29-3.71,77.57-3.71s52.26,1.25,78.75,3.71h428.03V193.61c0-53.82,43.79-97.61,97.61-97.61h467.17c53.82,0,97.61,43.79,97.61,97.61v599.55h154.47c-4.79-32.4-8.02-64.42-9.66-96h-48.81V193.61c0-106.76-86.85-193.61-193.61-193.61h-467.17c-106.76,0-193.61,86.85-193.61,193.61v503.55h-503.55c-90.14,0-166.09,61.92-187.55,145.45,48.5-19.79,99.34-34.09,152.23-42.84,10.96-4.27,22.87-6.62,35.32-6.62v.02ZM1687.94,2055.12c0,53.82-43.79,97.61-97.61,97.61h-467.17c-53.82,0-97.61-43.79-97.61-97.61v-599.55H426c-53.82,0-97.61-43.79-97.61-97.61v-429.41c-32.87,8.63-64.91,19.97-96,34.01v395.4c0,106.76,86.85,193.61,193.61,193.61h503.55v175.56c41.2,29.63,70.35,76.1,80.1,129.56,8.51,46.66.71,92.86-22.56,133.62-14.31,25.07-34.08,46.82-57.54,63.73v1.07c0,106.76,86.85,193.61,193.61,193.61h467.17c106.76,0,193.61-86.86,193.61-193.61v-234.93c-32.09-23.21-63.57-49.01-96-78.61v313.54h0Z"/>
  <path class="cls-11" d="M990.95,1860.1c15.95,87.46-33.34,168.07-110.77,199.79-80.8,33.1-176.26,3.77-222.21-71.75-52.5-86.3-25-199.88,60.37-252.76,53.1-32.9,115.89-35.82,174.82-7.8,47.76,22.71,86.46,70.4,97.79,132.53h0ZM757.99,2013.7c75.51,34.15,159.41-10.32,181.33-84.59,22.54-76.39-24.6-156.58-105.76-170.26-67.09-11.3-130.16,32.04-148.44,94.08-18.66,63.36,8.63,131.73,72.87,160.77h0Z"/>
  <path class="cls-12" d="M788.21,1811.56c47.97-13.04,91.77,13.87,104.28,58.47,11.94,42.58-13.11,89.77-58.18,101.82-42.2,11.28-88.99-11.02-101.51-52.99-13.19-44.25,7.32-94.22,55.41-107.3h0Z"/>
  <g class="cls-5">
    <text class="cls-6" transform="translate(4026.6 1749.03)"><tspan x="0" y="0">CONNECT</tspan></text>
  </g>
</svg>